<svg xmlns="http://www.w3.org/2000/svg" viewBox="0 0 500 500" width="500" height="500">
  <rect width="500" height="500" fill="#000000"/>
<g id="warp-w">
    <rect x="87" y="150" width="11" height="11" rx="1.2" fill="#ffffff"/>
    <rect x="100" y="150" width="11" height="11" rx="1.2" fill="#ffffff"/>
    <rect x="112" y="150" width="11" height="11" rx="1.2" fill="#ffffff"/>
    <rect x="124" y="150" width="11" height="11" rx="1.2" fill="#ffffff"/>
    <rect x="212" y="150" width="11" height="11" rx="1.2" fill="#ffffff"/>
    <rect x="224" y="150" width="11" height="11" rx="1.2" fill="#ffffff"/>
    <rect x="237" y="150" width="11" height="11" rx="1.2" fill="#ffffff"/>
    <rect x="250" y="150" width="11" height="11" rx="1.2" fill="#ffffff"/>
    <rect x="337" y="150" width="11" height="11" rx="1.2" fill="#f4f4f4"/>
    <rect x="350" y="150" width="11" height="11" rx="1.2" fill="#fbfbfb"/>
    <rect x="374" y="150" width="11" height="11" rx="1.2" fill="#f7f7f7"/>
    <rect x="87" y="162" width="11" height="11" rx="1.2" fill="#ffffff"/>
    <rect x="100" y="162" width="11" height="11" rx="1.2" fill="#ffffff"/>
    <rect x="112" y="162" width="11" height="11" rx="1.2" fill="#ffffff"/>
    <rect x="124" y="162" width="11" height="11" rx="1.2" fill="#ffffff"/>
    <rect x="212" y="162" width="11" height="11" rx="1.2" fill="#ffffff"/>
    <rect x="224" y="162" width="11" height="11" rx="1.2" fill="#ffffff"/>
    <rect x="237" y="162" width="11" height="11" rx="1.2" fill="#ffffff"/>
    <rect x="250" y="162" width="11" height="11" rx="1.2" fill="#ffffff"/>
    <rect x="337" y="162" width="11" height="11" rx="1.2" fill="#fdfdfd"/>
    <rect x="362" y="162" width="11" height="11" rx="1.2" fill="#fcfcfc"/>
    <rect x="374" y="162" width="11" height="11" rx="1.2" fill="#b1b1b1"/>
    <rect x="400" y="162" width="11" height="11" rx="1.2" fill="#d7d7d7"/>
    <rect x="100" y="175" width="11" height="11" rx="1.2" fill="#ffffff"/>
    <rect x="112" y="175" width="11" height="11" rx="1.2" fill="#ffffff"/>
    <rect x="124" y="175" width="11" height="11" rx="1.2" fill="#ffffff"/>
    <rect x="212" y="175" width="11" height="11" rx="1.2" fill="#ffffff"/>
    <rect x="224" y="175" width="11" height="11" rx="1.2" fill="#ffffff"/>
    <rect x="237" y="175" width="11" height="11" rx="1.2" fill="#ffffff"/>
    <rect x="250" y="175" width="11" height="11" rx="1.2" fill="#ffffff"/>
    <rect x="337" y="175" width="11" height="11" rx="1.2" fill="#f5f5f5"/>
    <rect x="350" y="175" width="11" height="11" rx="1.2" fill="#fcfcfc"/>
    <rect x="387" y="175" width="11" height="11" rx="1.2" fill="#f7f7f7"/>
    <rect x="437" y="175" width="11" height="11" rx="1.2" fill="#c3c3c3"/>
    <rect x="100" y="188" width="11" height="11" rx="1.2" fill="#ffffff"/>
    <rect x="112" y="188" width="11" height="11" rx="1.2" fill="#ffffff"/>
    <rect x="124" y="188" width="11" height="11" rx="1.2" fill="#ffffff"/>
    <rect x="137" y="188" width="11" height="11" rx="1.2" fill="#ffffff"/>
    <rect x="200" y="188" width="11" height="11" rx="1.2" fill="#ffffff"/>
    <rect x="212" y="188" width="11" height="11" rx="1.2" fill="#ffffff"/>
    <rect x="224" y="188" width="11" height="11" rx="1.2" fill="#ffffff"/>
    <rect x="237" y="188" width="11" height="11" rx="1.2" fill="#ffffff"/>
    <rect x="250" y="188" width="11" height="11" rx="1.2" fill="#fdfdfd"/>
    <rect x="262" y="188" width="11" height="11" rx="1.2" fill="#ffffff"/>
    <rect x="324" y="188" width="11" height="11" rx="1.2" fill="#fbfbfb"/>
    <rect x="337" y="188" width="11" height="11" rx="1.2" fill="#ededed"/>
    <rect x="362" y="188" width="11" height="11" rx="1.2" fill="#e8e8e8"/>
    <rect x="400" y="188" width="11" height="11" rx="1.2" fill="#bebebe"/>
    <rect x="100" y="200" width="11" height="11" rx="1.2" fill="#ffffff"/>
    <rect x="112" y="200" width="11" height="11" rx="1.2" fill="#ffffff"/>
    <rect x="124" y="200" width="11" height="11" rx="1.2" fill="#ffffff"/>
    <rect x="137" y="200" width="11" height="11" rx="1.2" fill="#ffffff"/>
    <rect x="200" y="200" width="11" height="11" rx="1.2" fill="#ffffff"/>
    <rect x="212" y="200" width="11" height="11" rx="1.2" fill="#ffffff"/>
    <rect x="224" y="200" width="11" height="11" rx="1.2" fill="#ffffff"/>
    <rect x="237" y="200" width="11" height="11" rx="1.2" fill="#ffffff"/>
    <rect x="250" y="200" width="11" height="11" rx="1.2" fill="#ffffff"/>
    <rect x="262" y="200" width="11" height="11" rx="1.2" fill="#ffffff"/>
    <rect x="324" y="200" width="11" height="11" rx="1.2" fill="#fafafa"/>
    <rect x="337" y="200" width="11" height="11" rx="1.2" fill="#f4f4f4"/>
    <rect x="350" y="200" width="11" height="11" rx="1.2" fill="#f9f9f9"/>
    <rect x="374" y="200" width="11" height="11" rx="1.2" fill="#f6f6f6"/>
    <rect x="412" y="200" width="11" height="11" rx="1.2" fill="#e7e7e7"/>
    <rect x="112" y="212" width="11" height="11" rx="1.2" fill="#ffffff"/>
    <rect x="124" y="212" width="11" height="11" rx="1.2" fill="#ffffff"/>
    <rect x="137" y="212" width="11" height="11" rx="1.2" fill="#ffffff"/>
    <rect x="200" y="212" width="11" height="11" rx="1.2" fill="#ffffff"/>
    <rect x="212" y="212" width="11" height="11" rx="1.2" fill="#ffffff"/>
    <rect x="224" y="212" width="11" height="11" rx="1.2" fill="#ffffff"/>
    <rect x="237" y="212" width="11" height="11" rx="1.2" fill="#ffffff"/>
    <rect x="250" y="212" width="11" height="11" rx="1.2" fill="#ffffff"/>
    <rect x="262" y="212" width="11" height="11" rx="1.2" fill="#ffffff"/>
    <rect x="324" y="212" width="11" height="11" rx="1.2" fill="#fbfbfb"/>
    <rect x="350" y="212" width="11" height="11" rx="1.2" fill="#f8f8f8"/>
    <rect x="362" y="212" width="11" height="11" rx="1.2" fill="#f9f9f9"/>
    <rect x="387" y="212" width="11" height="11" rx="1.2" fill="#e3e3e3"/>
    <rect x="112" y="225" width="11" height="11" rx="1.2" fill="#ffffff"/>
    <rect x="124" y="225" width="11" height="11" rx="1.2" fill="#ffffff"/>
    <rect x="137" y="225" width="11" height="11" rx="1.2" fill="#ffffff"/>
    <rect x="150" y="225" width="11" height="11" rx="1.2" fill="#ffffff"/>
    <rect x="187" y="225" width="11" height="11" rx="1.2" fill="#ffffff"/>
    <rect x="200" y="225" width="11" height="11" rx="1.2" fill="#ffffff"/>
    <rect x="212" y="225" width="11" height="11" rx="1.2" fill="#ffffff"/>
    <rect x="250" y="225" width="11" height="11" rx="1.2" fill="#ffffff"/>
    <rect x="262" y="225" width="11" height="11" rx="1.2" fill="#ffffff"/>
    <rect x="274" y="225" width="11" height="11" rx="1.2" fill="#ffffff"/>
    <rect x="312" y="225" width="11" height="11" rx="1.2" fill="#fefefe"/>
    <rect x="337" y="225" width="11" height="11" rx="1.2" fill="#fcfcfc"/>
    <rect x="374" y="225" width="11" height="11" rx="1.2" fill="#e9e9e9"/>
    <rect x="437" y="225" width="11" height="11" rx="1.2" fill="#b2b2b2"/>
    <rect x="112" y="238" width="11" height="11" rx="1.2" fill="#ffffff"/>
    <rect x="124" y="238" width="11" height="11" rx="1.2" fill="#ffffff"/>
    <rect x="137" y="238" width="11" height="11" rx="1.2" fill="#ffffff"/>
    <rect x="150" y="238" width="11" height="11" rx="1.2" fill="#ffffff"/>
    <rect x="187" y="238" width="11" height="11" rx="1.2" fill="#ffffff"/>
    <rect x="200" y="238" width="11" height="11" rx="1.2" fill="#ffffff"/>
    <rect x="212" y="238" width="11" height="11" rx="1.2" fill="#ffffff"/>
    <rect x="250" y="238" width="11" height="11" rx="1.2" fill="#ffffff"/>
    <rect x="262" y="238" width="11" height="11" rx="1.2" fill="#ffffff"/>
    <rect x="274" y="238" width="11" height="11" rx="1.2" fill="#ffffff"/>
    <rect x="312" y="238" width="11" height="11" rx="1.2" fill="#e6e6e6"/>
    <rect x="324" y="238" width="11" height="11" rx="1.2" fill="#fcfcfc"/>
    <rect x="350" y="238" width="11" height="11" rx="1.2" fill="#e8e8e8"/>
    <rect x="412" y="238" width="11" height="11" rx="1.2" fill="#dedede"/>
    <rect x="124" y="250" width="11" height="11" rx="1.2" fill="#ffffff"/>
    <rect x="137" y="250" width="11" height="11" rx="1.2" fill="#ffffff"/>
    <rect x="150" y="250" width="11" height="11" rx="1.2" fill="#ffffff"/>
    <rect x="187" y="250" width="11" height="11" rx="1.2" fill="#ffffff"/>
    <rect x="200" y="250" width="11" height="11" rx="1.2" fill="#ffffff"/>
    <rect x="212" y="250" width="11" height="11" rx="1.2" fill="#ffffff"/>
    <rect x="250" y="250" width="11" height="11" rx="1.2" fill="#ffffff"/>
    <rect x="262" y="250" width="11" height="11" rx="1.2" fill="#fdfdfd"/>
    <rect x="274" y="250" width="11" height="11" rx="1.2" fill="#ffffff"/>
    <rect x="312" y="250" width="11" height="11" rx="1.2" fill="#ffffff"/>
    <rect x="324" y="250" width="11" height="11" rx="1.2" fill="#f6f6f6"/>
    <rect x="337" y="250" width="11" height="11" rx="1.2" fill="#fbfbfb"/>
    <rect x="362" y="250" width="11" height="11" rx="1.2" fill="#e7e7e7"/>
    <rect x="400" y="250" width="11" height="11" rx="1.2" fill="#e8e8e8"/>
    <rect x="124" y="262" width="11" height="11" rx="1.2" fill="#fafafa"/>
    <rect x="137" y="262" width="11" height="11" rx="1.2" fill="#ffffff"/>
    <rect x="150" y="262" width="11" height="11" rx="1.2" fill="#ffffff"/>
    <rect x="187" y="262" width="11" height="11" rx="1.2" fill="#ffffff"/>
    <rect x="200" y="262" width="11" height="11" rx="1.2" fill="#ffffff"/>
    <rect x="212" y="262" width="11" height="11" rx="1.2" fill="#ffffff"/>
    <rect x="250" y="262" width="11" height="11" rx="1.2" fill="#ffffff"/>
    <rect x="262" y="262" width="11" height="11" rx="1.2" fill="#ffffff"/>
    <rect x="274" y="262" width="11" height="11" rx="1.2" fill="#ffffff"/>
    <rect x="312" y="262" width="11" height="11" rx="1.2" fill="#fefefe"/>
    <rect x="337" y="262" width="11" height="11" rx="1.2" fill="#fbfbfb"/>
    <rect x="387" y="262" width="11" height="11" rx="1.2" fill="#b4b4b4"/>
    <rect x="424" y="262" width="11" height="11" rx="1.2" fill="#b2b2b2"/>
    <rect x="124" y="275" width="11" height="11" rx="1.2" fill="#ffffff"/>
    <rect x="137" y="275" width="11" height="11" rx="1.2" fill="#ffffff"/>
    <rect x="150" y="275" width="11" height="11" rx="1.2" fill="#ffffff"/>
    <rect x="174" y="275" width="11" height="11" rx="1.2" fill="#ffffff"/>
    <rect x="187" y="275" width="11" height="11" rx="1.2" fill="#ffffff"/>
    <rect x="200" y="275" width="11" height="11" rx="1.2" fill="#ffffff"/>
    <rect x="262" y="275" width="11" height="11" rx="1.2" fill="#ffffff"/>
    <rect x="274" y="275" width="11" height="11" rx="1.2" fill="#ffffff"/>
    <rect x="300" y="275" width="11" height="11" rx="1.2" fill="#ffffff"/>
    <rect x="312" y="275" width="11" height="11" rx="1.2" fill="#f3f3f3"/>
    <rect x="324" y="275" width="11" height="11" rx="1.2" fill="#fbfbfb"/>
    <rect x="350" y="275" width="11" height="11" rx="1.2" fill="#fafafa"/>
    <rect x="374" y="275" width="11" height="11" rx="1.2" fill="#f3f3f3"/>
    <rect x="400" y="275" width="11" height="11" rx="1.2" fill="#b5b5b5"/>
    <rect x="137" y="288" width="11" height="11" rx="1.2" fill="#ffffff"/>
    <rect x="150" y="288" width="11" height="11" rx="1.2" fill="#ffffff"/>
    <rect x="162" y="288" width="11" height="11" rx="1.2" fill="#ffffff"/>
    <rect x="174" y="288" width="11" height="11" rx="1.2" fill="#ffffff"/>
    <rect x="187" y="288" width="11" height="11" rx="1.2" fill="#ffffff"/>
    <rect x="200" y="288" width="11" height="11" rx="1.2" fill="#ffffff"/>
    <rect x="262" y="288" width="11" height="11" rx="1.2" fill="#ffffff"/>
    <rect x="274" y="288" width="11" height="11" rx="1.2" fill="#ffffff"/>
    <rect x="287" y="288" width="11" height="11" rx="1.2" fill="#ffffff"/>
    <rect x="300" y="288" width="11" height="11" rx="1.2" fill="#fefefe"/>
    <rect x="312" y="288" width="11" height="11" rx="1.2" fill="#f8f8f8"/>
    <rect x="337" y="288" width="11" height="11" rx="1.2" fill="#fcfcfc"/>
    <rect x="362" y="288" width="11" height="11" rx="1.2" fill="#f8f8f8"/>
    <rect x="137" y="300" width="11" height="11" rx="1.2" fill="#ffffff"/>
    <rect x="150" y="300" width="11" height="11" rx="1.2" fill="#ffffff"/>
    <rect x="162" y="300" width="11" height="11" rx="1.2" fill="#ffffff"/>
    <rect x="174" y="300" width="11" height="11" rx="1.2" fill="#ffffff"/>
    <rect x="187" y="300" width="11" height="11" rx="1.2" fill="#ffffff"/>
    <rect x="200" y="300" width="11" height="11" rx="1.2" fill="#ffffff"/>
    <rect x="262" y="300" width="11" height="11" rx="1.2" fill="#ffffff"/>
    <rect x="274" y="300" width="11" height="11" rx="1.2" fill="#ffffff"/>
    <rect x="287" y="300" width="11" height="11" rx="1.2" fill="#ffffff"/>
    <rect x="312" y="300" width="11" height="11" rx="1.2" fill="#ffffff"/>
    <rect x="324" y="300" width="11" height="11" rx="1.2" fill="#ffffff"/>
    <rect x="350" y="300" width="11" height="11" rx="1.2" fill="#ebebeb"/>
    <rect x="400" y="300" width="11" height="11" rx="1.2" fill="#d8d8d8"/>
    <rect x="424" y="300" width="11" height="11" rx="1.2" fill="#a4a4a4"/>
    <rect x="137" y="312" width="11" height="11" rx="1.2" fill="#ffffff"/>
    <rect x="150" y="312" width="11" height="11" rx="1.2" fill="#ffffff"/>
    <rect x="162" y="312" width="11" height="11" rx="1.2" fill="#ffffff"/>
    <rect x="174" y="312" width="11" height="11" rx="1.2" fill="#ffffff"/>
    <rect x="187" y="312" width="11" height="11" rx="1.2" fill="#ffffff"/>
    <rect x="200" y="312" width="11" height="11" rx="1.2" fill="#ffffff"/>
    <rect x="262" y="312" width="11" height="11" rx="1.2" fill="#ffffff"/>
    <rect x="274" y="312" width="11" height="11" rx="1.2" fill="#ffffff"/>
    <rect x="287" y="312" width="11" height="11" rx="1.2" fill="#ffffff"/>
    <rect x="300" y="312" width="11" height="11" rx="1.2" fill="#fefefe"/>
    <rect x="324" y="312" width="11" height="11" rx="1.2" fill="#ffffff"/>
    <rect x="374" y="312" width="11" height="11" rx="1.2" fill="#e1e1e1"/>
    <rect x="150" y="325" width="11" height="11" rx="1.2" fill="#ffffff"/>
    <rect x="162" y="325" width="11" height="11" rx="1.2" fill="#ffffff"/>
    <rect x="174" y="325" width="11" height="11" rx="1.2" fill="#ffffff"/>
    <rect x="187" y="325" width="11" height="11" rx="1.2" fill="#ffffff"/>
    <rect x="274" y="325" width="11" height="11" rx="1.2" fill="#ffffff"/>
    <rect x="287" y="325" width="11" height="11" rx="1.2" fill="#ffffff"/>
    <rect x="300" y="325" width="11" height="11" rx="1.2" fill="#fcfcfc"/>
    <rect x="312" y="325" width="11" height="11" rx="1.2" fill="#fdfdfd"/>
    <rect x="337" y="325" width="11" height="11" rx="1.2" fill="#f8f8f8"/>
    <rect x="150" y="338" width="11" height="11" rx="1.2" fill="#ffffff"/>
    <rect x="162" y="338" width="11" height="11" rx="1.2" fill="#ffffff"/>
    <rect x="174" y="338" width="11" height="11" rx="1.2" fill="#ffffff"/>
    <rect x="187" y="338" width="11" height="11" rx="1.2" fill="#ffffff"/>
    <rect x="274" y="338" width="11" height="11" rx="1.2" fill="#ffffff"/>
    <rect x="287" y="338" width="11" height="11" rx="1.2" fill="#fefefe"/>
    <rect x="300" y="338" width="11" height="11" rx="1.2" fill="#f1f1f1"/>
    <rect x="312" y="338" width="11" height="11" rx="1.2" fill="#ffffff"/>
    <rect x="350" y="338" width="11" height="11" rx="1.2" fill="#f4f4f4"/>
    <rect x="387" y="338" width="11" height="11" rx="1.2" fill="#adadad"/>
  </g>
</svg>